<svg width="337" height="50" viewBox="0 0 337 50" fill="none" xmlns="http://www.w3.org/2000/svg">
<path d="M280.54 7.92037L278.095 7.58184C276.503 7.37106 276.076 7.07724 276.076 6.25966C276.076 5.27601 276.755 4.85445 278.69 4.85445C281.026 4.85445 281.666 5.50596 281.666 6.7451V6.87285H283.938V6.80897C283.938 4.33069 281.983 3.05322 278.755 3.05322C275.526 3.05322 273.824 4.35624 273.824 6.17663C273.824 7.99701 275.034 8.75711 277.033 9.00621L279.926 9.38307C281.433 9.59385 281.945 9.8685 281.945 10.7244C281.945 11.6506 281.33 12.0657 279.266 12.0657C277.053 12.0657 276.225 11.625 276.225 10.2645V10.0984H273.927V10.1623C273.927 12.5767 275.862 13.8989 279.259 13.8989C282.236 13.8989 284.19 12.7428 284.19 10.7947C284.19 9.07647 283.045 8.23335 280.534 7.92037H280.54Z" fill="black"/>
<path d="M288.953 5.15436V10.0407C288.953 11.3181 289.548 11.6567 290.868 11.6567H292.544V13.6942H290.357C288.085 13.6942 286.681 12.7106 286.681 10.1684V5.15436H285.174V3.26371H286.681V0.977051H288.953V3.26371H292.544V5.15436H288.953Z" fill="black"/>
<path d="M303.046 8.42414C303.046 10.6916 301.959 11.8669 299.623 11.8669C297.287 11.8669 296.478 10.8833 296.478 8.92874V3.26318H294.207V9.53554C294.207 11.9499 295.65 13.8981 298.626 13.8981C301.344 13.8981 302.748 12.2182 303.091 10.4553H303.221V13.6873H305.324V3.26318H303.052V8.42414H303.046Z" fill="black"/>
<path d="M316.499 0.977051V6.09969H316.369C315.942 4.33679 314.519 3.05932 312.014 3.05932C308.805 3.05932 306.98 5.24379 306.98 8.49494C306.98 11.7461 308.831 13.905 312.17 13.905C314.551 13.905 316.104 12.7744 316.544 10.6986H316.693V13.6942H318.796V0.977051H316.499ZM316.499 8.59075C316.499 10.7752 315.114 11.8227 312.862 11.8227C310.61 11.8227 309.29 10.986 309.29 8.48855C309.29 5.9911 310.61 5.10965 312.817 5.10965C315.179 5.10965 316.492 6.20188 316.492 8.42467V8.59075H316.499Z" fill="black"/>
<path d="M323.131 0.977539H320.834V3.39195H323.131V0.977539Z" fill="black"/>
<path d="M323.131 4.60547H320.834V13.6882H323.131V4.60547Z" fill="black"/>
<path d="M330.657 3.05322C327.15 3.05322 324.788 5.23769 324.788 8.48884C324.788 11.74 327.15 13.8989 330.657 13.8989C334.164 13.8989 336.545 11.6953 336.545 8.48884C336.545 5.2824 334.183 3.05322 330.657 3.05322ZM330.657 11.8869C328.107 11.8869 327.046 10.6925 327.046 8.48884C327.046 6.28521 328.107 5.04607 330.657 5.04607C333.206 5.04607 334.293 6.26605 334.293 8.48884C334.293 10.7116 333.232 11.8869 330.657 11.8869Z" fill="black"/>
<path d="M26.2584 0C10.3856 0 0 10.06 0 25.0511C0 41.1025 10.4827 50 26.4525 50C40.9535 50 51.145 42.942 51.145 32.6903V31.8217H40.5653V32.5945C40.5653 38.2984 36.3528 41.5879 26.1613 41.5879C14.8957 41.5879 10.2885 36.6569 9.90028 27.3697H51.2485C51.5397 25.9198 51.6432 24.5657 51.6432 22.8219C51.6303 8.22049 41.3418 0 26.2584 0ZM41.6394 21.5636H9.99087C10.5797 12.9535 15.284 8.22049 26.0578 8.22049C36.8316 8.22049 41.633 12.4745 41.633 21.372V21.5636H41.6394Z" fill="black"/>
<path d="M98.7568 0.964355L81.4151 38.8795H80.6321L63.2905 0.964355H51.6301L74.362 49.029H87.297L110.223 0.964355H98.7568Z" fill="black"/>
<path d="M134.695 0C119.217 0 110.009 8.22049 110.009 19.1492V19.5388H120.492V19.1492C120.492 12.0912 124.899 9.19137 133.912 9.19137C142.926 9.19137 146.744 11.9954 146.744 19.9285V22.7325L124.601 25.0511C114.998 26.1178 108.922 29.9821 108.922 37.4297C108.922 45.3628 115.29 50 125.384 50C136.456 50 144.195 45.1648 146.744 37.0401H147.43V49.0291H157.13V19.8263C157.13 8.3163 150.174 0 134.695 0ZM128.231 42.4566C122.155 42.4566 119.515 40.617 119.515 36.7527C119.515 32.8884 122.162 31.7259 127.649 31.0488L146.75 28.9218C146.75 38.4006 139.303 42.463 128.231 42.463V42.4566Z" fill="black"/>
<path d="M192.376 0C182.385 0 177.092 6.18932 175.623 13.9244H174.937V0.964486H165.238V49.0291H175.818V22.0491C175.818 13.4389 179.247 8.89755 187.575 8.89755C194.822 8.89755 197.766 12.0912 197.766 18.9576V23.2115H208.249V16.9264C208.249 7.83725 203.448 0 192.376 0Z" fill="black"/>
<path d="M239.186 0C223.022 0 212.144 10.06 212.144 25.0511C212.144 40.0422 223.022 50 239.186 50C255.35 50 266.324 39.8442 266.324 25.0511C266.324 10.258 255.453 0 239.186 0ZM239.186 40.7128C227.428 40.7128 222.53 35.2006 222.53 25.0447C222.53 14.8889 227.428 9.18498 239.186 9.18498C250.943 9.18498 255.938 14.7931 255.938 25.0447C255.938 35.2964 251.04 40.7128 239.186 40.7128Z" fill="black"/>
</svg>
