<svg width="270" height="40" viewBox="0 0 270 40" fill="none" xmlns="http://www.w3.org/2000/svg">
<path d="M224.432 6.3361L222.475 6.06527C221.202 5.89665 220.86 5.6616 220.86 5.00753C220.86 4.22061 221.404 3.88336 222.951 3.88336C224.82 3.88336 225.333 4.40457 225.333 5.39588V5.49808H227.15V5.44698C227.15 3.46435 225.586 2.44238 223.003 2.44238C220.42 2.44238 219.059 3.48479 219.059 4.94111C219.059 6.39742 220.027 7.00549 221.626 7.20477L223.94 7.50626C225.146 7.67488 225.555 7.89461 225.555 8.57933C225.555 9.32026 225.063 9.6524 223.412 9.6524C221.642 9.6524 220.979 9.29982 220.979 8.21142V8.07856H219.141V8.12966C219.141 10.0612 220.689 11.1189 223.407 11.1189C225.788 11.1189 227.352 10.194 227.352 8.63554C227.352 7.26098 226.435 6.58648 224.427 6.3361H224.432Z" fill="black"/>
<path d="M231.162 4.12359V8.03263C231.162 9.05461 231.638 9.32543 232.694 9.32543H234.035V10.9555H232.285C230.468 10.9555 229.345 10.1686 229.345 8.13483V4.12359H228.139V2.61107H229.345V0.781738H231.162V2.61107H234.035V4.12359H231.162Z" fill="black"/>
<path d="M242.436 6.73961C242.436 8.55361 241.567 9.49382 239.698 9.49382C237.829 9.49382 237.182 8.7069 237.182 7.14329V2.61084H235.365V7.62872C235.365 9.56025 236.52 11.1188 238.901 11.1188C241.075 11.1188 242.198 9.77487 242.473 8.36454H242.576V10.9501H244.259V2.61084H242.442V6.73961H242.436Z" fill="black"/>
<path d="M253.199 0.781738V4.87985H253.095C252.754 3.46953 251.615 2.44755 249.611 2.44755C247.044 2.44755 245.584 4.19513 245.584 6.79605C245.584 9.39697 247.064 11.1241 249.736 11.1241C251.641 11.1241 252.883 10.2197 253.235 8.55895H253.354V10.9555H255.036V0.781738H253.199ZM253.199 6.87269C253.199 8.62027 252.091 9.45829 250.29 9.45829C248.488 9.45829 247.432 8.78889 247.432 6.79094C247.432 4.79298 248.488 4.08782 250.253 4.08782C252.143 4.08782 253.194 4.96161 253.194 6.73984V6.87269H253.199Z" fill="black"/>
<path d="M258.504 0.781738H256.666V2.71327H258.504V0.781738Z" fill="black"/>
<path d="M258.504 3.68408H256.666V10.9503H258.504V3.68408Z" fill="black"/>
<path d="M264.525 2.44238C261.72 2.44238 259.83 4.18996 259.83 6.79088C259.83 9.3918 261.72 11.1189 264.525 11.1189C267.331 11.1189 269.236 9.35603 269.236 6.79088C269.236 4.22572 267.347 2.44238 264.525 2.44238ZM264.525 9.50932C262.486 9.50932 261.637 8.55378 261.637 6.79088C261.637 5.02797 262.486 4.03666 264.525 4.03666C266.565 4.03666 267.435 5.01264 267.435 6.79088C267.435 8.56911 266.586 9.50932 264.525 9.50932Z" fill="black"/>
<path d="M21.0067 0C8.30847 0 0 8.04803 0 20.0409C0 32.882 8.38612 40 21.162 40C32.7628 40 40.916 34.3536 40.916 26.1523V25.4573H32.4522V26.0756C32.4522 30.6387 29.0822 33.2703 20.9291 33.2703C11.9166 33.2703 8.23082 29.3255 7.92023 21.8958H40.9988C41.2318 20.7358 41.3146 19.6525 41.3146 18.2575C41.3042 6.57639 33.0734 0 21.0067 0ZM33.3115 17.2509H7.9927C8.46377 10.3628 12.2272 6.57639 20.8462 6.57639C29.4653 6.57639 33.3064 9.97956 33.3064 17.0976V17.2509H33.3115Z" fill="black"/>
<path d="M79.006 0.771484L65.1327 31.1036H64.5063L50.633 0.771484H41.3047L59.4901 39.2232H69.8382L88.179 0.771484H79.006Z" fill="black"/>
<path d="M107.757 0C95.3747 0 88.0083 6.57639 88.0083 15.3194V15.6311H96.3945V15.3194C96.3945 9.67297 99.9197 7.35309 107.131 7.35309C114.342 7.35309 117.396 9.59632 117.396 15.9428V18.186L99.6816 20.0409C91.9995 20.8942 87.1387 23.9857 87.1387 29.9438C87.1387 36.2902 92.2325 40 100.308 40C109.165 40 115.356 36.1318 117.396 29.6321H117.945V39.2233H125.704V15.861C125.704 6.65304 120.14 0 107.757 0ZM102.586 33.9653C97.7249 33.9653 95.6128 32.4936 95.6128 29.4021C95.6128 26.3107 97.73 25.3807 102.12 24.839L117.401 23.1375C117.401 30.7205 111.443 33.9704 102.586 33.9704V33.9653Z" fill="black"/>
<path d="M153.9 0C145.907 0 141.673 4.95146 140.498 11.1395H139.949V0.771589H132.189V39.2233H140.653V17.6392C140.653 10.7512 143.397 7.11804 150.059 7.11804C155.857 7.11804 158.212 9.67297 158.212 15.1661V18.5692H166.598V13.5411C166.598 6.2698 162.757 0 153.9 0Z" fill="black"/>
<path d="M191.348 0C178.417 0 169.715 8.04803 169.715 20.0409C169.715 32.0337 178.417 40 191.348 40C204.279 40 213.059 31.8753 213.059 20.0409C213.059 8.20644 204.362 0 191.348 0ZM191.348 32.5703C181.942 32.5703 178.023 28.1604 178.023 20.0358C178.023 11.9111 181.942 7.34798 191.348 7.34798C200.754 7.34798 204.75 11.8344 204.75 20.0358C204.75 28.2371 200.832 32.5703 191.348 32.5703Z" fill="black"/>
</svg>
