<svg width="433" height="51" viewBox="0 0 433 51" fill="none" xmlns="http://www.w3.org/2000/svg">
<g clip-path="url(#clip0_729_2118)">
<path d="M20.4853 9.94336C8.1018 9.94336 0 18.0997 0 30.2592C0 43.2793 8.17874 50.5 20.6392 50.5C31.9532 50.5 39.9012 44.7716 39.9012 36.4574V35.7507H31.6455V36.3784C31.6455 41.0053 28.3601 43.6741 20.4084 43.6741C11.618 43.6741 8.02486 39.6749 7.72094 32.1423H39.9743C40.2051 30.9659 40.282 29.8683 40.282 28.455C40.2859 16.6113 32.261 9.94336 20.4892 9.94336H20.4853ZM32.488 27.4365H7.79788C8.25568 20.4566 11.9257 16.6113 20.3353 16.6113C28.7448 16.6113 32.488 20.0618 32.488 27.2785V27.4365Z" fill="black"/>
<path d="M77.0517 10.7251L63.5218 41.4791H62.9101L49.3802 10.7251H40.2859L58.0167 49.7144H68.1074L85.996 10.7251H77.0517Z" fill="black"/>
<path d="M106.097 9.94336C94.0209 9.94336 86.8347 16.6113 86.8347 25.4743V25.7902H95.0134V25.4743C95.0134 19.746 98.4527 17.397 105.485 17.397C112.517 17.397 115.499 19.671 115.499 26.106V28.38L98.2218 30.2631C90.7317 31.1238 85.9922 34.2623 85.9922 40.3066C85.9922 46.7416 90.9625 50.504 98.8335 50.504C107.474 50.504 113.51 46.5798 115.499 39.9907H116.033V49.7183H123.601V26.0271C123.604 16.6903 118.18 9.94336 106.1 9.94336H106.097ZM101.053 44.3808C96.3137 44.3808 94.2517 42.8924 94.2517 39.7539C94.2517 36.6153 96.3176 35.6757 100.595 35.1269L115.503 33.4017C115.503 41.0922 109.694 44.3847 101.053 44.3847V44.3808Z" fill="black"/>
<path d="M152.114 9.94336C144.317 9.94336 140.189 14.9651 139.042 21.2383H138.508V10.725H130.941V49.7144H139.196V27.8273C139.196 20.8474 141.87 17.1601 148.368 17.1601C154.023 17.1601 156.315 19.7499 156.315 25.3204V28.7708H164.494V23.6702C164.494 16.2955 160.751 9.94336 152.114 9.94336Z" fill="black"/>
<path d="M189.642 9.94336C177.028 9.94336 168.545 18.0997 168.545 30.2592C168.545 42.4187 177.032 50.5 189.642 50.5C202.253 50.5 210.816 42.2608 210.816 30.2592C210.816 18.2576 202.329 9.94336 189.642 9.94336ZM189.642 42.9674C180.471 42.9674 176.647 38.4984 176.647 30.2592C176.647 22.0199 180.471 17.397 189.642 17.397C198.813 17.397 202.714 21.9489 202.714 30.2592C202.714 38.5695 198.89 42.9674 189.642 42.9674Z" fill="black"/>
<path d="M335.067 23.9109L326.007 49.4577H316.778L309.346 28.5023L303.864 43.9623L305.81 49.4577H294.858L281.239 11.0606H292.192L302.763 40.875L308.245 25.4151L303.156 11.0606H314.108L325.768 43.9386L332.008 26.3468C332.381 25.3756 332.378 24.4044 332.008 23.4767C331.22 21.479 328.988 19.7696 323.06 20.6974L326.853 9.99858C333.951 10.9579 337.602 16.7416 335.063 23.907L335.067 23.9109ZM427.152 26.6429C420.066 31.7396 418.139 36.6389 420.516 39.3432C421.921 40.9382 424.633 41.7672 429.895 38.8142V50.1999C429.034 50.3973 428.126 50.4921 427.179 50.4921C420.867 50.4921 417.543 46.0941 417.543 40.0104V13.1766C417.543 13.1766 417.543 13.1766 414.457 13.1766V11.0645C417.396 11.0842 420.397 7.87067 416.473 0.503906H427.568C428.518 4.86237 427.383 8.77868 424.463 11.0685H433V13.1806H427.841V26.1691C427.61 26.327 427.383 26.485 427.152 26.6508V26.6429ZM349.678 11.9054C358.81 7.53904 368.616 10.8869 373.821 19.8644L351.528 35.8849C357.406 44.4005 366.839 42.3713 372.302 39.9275L373.16 41.8225C371.429 44.7163 368.84 47.1008 365.504 48.6958C355.444 53.5004 345.484 48.0325 341.003 38.3721C336.086 27.772 339.806 16.631 349.678 11.9054ZM364.396 24.057C360.034 15.6796 354.821 11.7317 350.528 13.8083C344.526 16.71 347.073 27.9338 350.432 34.0925L364.4 24.057H364.396ZM389.86 34.7005C395.653 44.586 405.69 42.4779 411.395 39.9275L412.253 41.8225C410.522 44.7163 407.933 47.0969 404.597 48.6958C394.538 53.5004 384.578 48.0325 380.096 38.3721C375.179 27.772 378.899 16.631 388.771 11.9054C396.465 8.22598 404.632 10.0223 410.129 16.0428L405.64 28.7195C403.551 23.4688 396.815 10.3302 389.625 13.8043C383.424 16.8008 386.343 28.6997 389.863 34.7005H389.86ZM255.326 11.8896C265.197 7.16005 275.846 11.4396 280.674 22.0989C285.513 32.7503 281.878 43.8636 271.999 48.5852C262.12 53.3148 251.479 49.0353 246.639 38.3839C241.8 27.7325 245.443 16.6113 255.326 11.8896ZM271.11 46.6784C275.827 44.4321 275.904 36.6745 271.31 26.5639C266.717 16.4613 260.885 11.5343 256.168 13.7925C251.452 16.0507 251.375 23.7964 255.968 33.907C260.558 44.0175 266.394 48.9366 271.11 46.6784Z" fill="black"/>
<path d="M228.051 9.94336H227.281V50.5H228.051V9.94336Z" fill="black"/>
</g>
<defs>
<clipPath id="clip0_729_2118">
<rect width="433" height="50" fill="white" transform="translate(0 0.5)"/>
</clipPath>
</defs>
</svg>
