<svg width="433" height="50" viewBox="0 0 433 50" fill="none" xmlns="http://www.w3.org/2000/svg">
<g clip-path="url(#clip0_906_638)">
<path d="M20.4853 9.44336C8.1018 9.44336 0 17.5997 0 29.7592C0 42.7793 8.17874 50 20.6392 50C31.9532 50 39.9012 44.2716 39.9012 35.9574V35.2507H31.6455V35.8784C31.6455 40.5053 28.3601 43.1741 20.4084 43.1741C11.618 43.1741 8.02486 39.1749 7.72094 31.6423H39.9743C40.2051 30.4659 40.282 29.3683 40.282 27.955C40.2859 16.1113 32.261 9.44336 20.4892 9.44336H20.4853ZM32.488 26.9365H7.79788C8.25568 19.9566 11.9257 16.1113 20.3353 16.1113C28.7448 16.1113 32.488 19.5618 32.488 26.7785V26.9365Z" fill="black"/>
<path d="M77.051 10.2251L63.5211 40.9791H62.9094L49.3795 10.2251H40.2852L58.016 49.2144H68.1067L85.9953 10.2251H77.051Z" fill="black"/>
<path d="M106.097 9.44336C94.0209 9.44336 86.8347 16.1113 86.8347 24.9743V25.2902H95.0134V24.9743C95.0134 19.246 98.4527 16.897 105.485 16.897C112.517 16.897 115.499 19.171 115.499 25.606V27.88L98.2218 29.7631C90.7317 30.6238 85.9922 33.7623 85.9922 39.8066C85.9922 46.2416 90.9625 50.004 98.8335 50.004C107.474 50.004 113.51 46.0798 115.499 39.4907H116.033V49.2183H123.601V25.5271C123.604 16.1903 118.18 9.44336 106.1 9.44336H106.097ZM101.053 43.8808C96.3137 43.8808 94.2517 42.3924 94.2517 39.2539C94.2517 36.1153 96.3176 35.1757 100.595 34.6269L115.503 32.9017C115.503 40.5922 109.694 43.8847 101.053 43.8847V43.8808Z" fill="black"/>
<path d="M152.115 9.44336C144.317 9.44336 140.19 14.4651 139.043 20.7383H138.508V10.225H130.941V49.2144H139.197V27.3273C139.197 20.3474 141.871 16.6601 148.368 16.6601C154.023 16.6601 156.316 19.2499 156.316 24.8204V28.2708H164.495V23.1702C164.495 15.7955 160.752 9.44336 152.115 9.44336Z" fill="black"/>
<path d="M189.642 9.44336C177.028 9.44336 168.545 17.5997 168.545 29.7592C168.545 41.9187 177.031 50 189.642 50C202.252 50 210.816 41.7608 210.816 29.7592C210.816 17.7576 202.329 9.44336 189.642 9.44336ZM189.642 42.4674C180.471 42.4674 176.647 37.9984 176.647 29.7592C176.647 21.5199 180.471 16.897 189.642 16.897C198.813 16.897 202.714 21.4489 202.714 29.7592C202.714 38.0695 198.89 42.4674 189.642 42.4674Z" fill="black"/>
<path d="M335.067 23.4109L326.007 48.9577H316.778L309.346 28.0023L303.864 43.4623L305.811 48.9577H294.858L281.24 10.5606H292.192L302.764 40.375L308.246 24.9151L303.156 10.5606H314.109L325.769 43.4386L332.009 25.8468C332.382 24.8756 332.378 23.9044 332.009 22.9767C331.22 20.979 328.989 19.2696 323.061 20.1974L326.854 9.49858C333.951 10.4579 337.602 16.2416 335.063 23.407L335.067 23.4109ZM427.153 26.1429C420.067 31.2396 418.139 36.1389 420.517 38.8432C421.921 40.4382 424.633 41.2672 429.896 38.3142V49.6999C429.034 49.8973 428.126 49.9921 427.18 49.9921C420.867 49.9921 417.543 45.5941 417.543 39.5104V12.6766C417.543 12.6766 417.543 12.6766 414.458 12.6766V10.5645C417.397 10.5842 420.398 7.37067 416.474 0.00390625H427.568C428.519 4.36237 427.384 8.27868 424.464 10.5685H433V12.6806H427.841V25.6691C427.611 25.827 427.384 25.985 427.153 26.1508V26.1429ZM349.678 11.4054C358.811 7.03904 368.617 10.3869 373.822 19.3644L351.528 35.3849C357.407 43.9005 366.839 41.8713 372.302 39.4275L373.16 41.3225C371.429 44.2163 368.84 46.6008 365.505 48.1958C355.445 53.0004 345.485 47.5325 341.003 37.8721C336.086 27.272 339.807 16.131 349.678 11.4054ZM364.397 23.557C360.034 15.1796 354.821 11.2317 350.528 13.3083C344.527 16.21 347.074 27.4338 350.432 33.5925L364.4 23.557H364.397ZM389.86 34.2005C395.654 44.086 405.69 41.9779 411.396 39.4275L412.253 41.3225C410.522 44.2163 407.933 46.5969 404.598 48.1958C394.538 53.0004 384.578 47.5325 380.096 37.8721C375.18 27.272 378.9 16.131 388.771 11.4054C396.465 7.72598 404.632 9.52227 410.13 15.5428L405.64 28.2195C403.551 22.9688 396.815 9.8302 389.625 13.3043C383.424 16.3008 386.344 28.1997 389.864 34.2005H389.86ZM255.326 11.3896C265.198 6.66005 275.846 10.9396 280.674 21.5989C285.514 32.2503 281.878 43.3636 271.999 48.0852C262.12 52.8148 251.479 48.5353 246.64 37.8839C241.8 27.2325 245.443 16.1113 255.326 11.3896ZM271.111 46.1784C275.827 43.9321 275.904 36.1745 271.311 26.0639C266.717 15.9613 260.885 11.0343 256.169 13.2925C251.452 15.5507 251.375 23.2964 255.969 33.407C260.558 43.5175 266.394 48.4366 271.111 46.1784Z" fill="black"/>
<path d="M228.051 9.44336H227.281V50H228.051V9.44336Z" fill="black"/>
</g>
<defs>
<clipPath id="clip0_906_638">
<rect width="433" height="50" fill="white"/>
</clipPath>
</defs>
</svg>
